HIERARCHY
ROOT Hips
{
	OFFSET 0.000000 0.000000 0.000000
	CHANNELS 6 Xposition Yposition Zposition Zrotation Yrotation Xrotation 
	JOINT LHipJoint
	{
		OFFSET 0.000000 0.000000 0.000000
		CHANNELS 3 Zrotation Yrotation Xrotation
		JOINT LeftUpLeg
		{
			OFFSET 1.363060 -1.794630 0.839290
			CHANNELS 3 Zrotation Yrotation Xrotation
			JOINT LeftLeg
			{
				OFFSET 2.448110 -6.726130 0.000000
				CHANNELS 3 Zrotation Yrotation Xrotation
				JOINT LeftFoot
				{
					OFFSET 2.562200 -7.039590 0.000000
					CHANNELS 3 Zrotation Yrotation Xrotation
					JOINT LeftToeBase
					{
						OFFSET 0.157640 -0.433110 2.322550
						CHANNELS 3 Zrotation Yrotation Xrotation
						End Site
						{
							OFFSET 0.000000 0.000000 0.000000
						}
					}
				}
			}
		}
	}
	JOINT RHipJoint
	{
		OFFSET 0.000000 0.000000 0.000000
		CHANNELS 3 Zrotation Yrotation Xrotation
		JOINT RightUpLeg
		{
			OFFSET -1.305520 -1.794630 0.839290
			CHANNELS 3 Zrotation Yrotation Xrotation
			JOINT RightLeg
			{
				OFFSET -2.542530 -6.985550 0.000000
				CHANNELS 3 Zrotation Yrotation Xrotation
				JOINT RightFoot
				{
					OFFSET -2.568260 -7.056230 0.000000
					CHANNELS 3 Zrotation Yrotation Xrotation
					JOINT RightToeBase
					{
						OFFSET -0.164730 -0.452590 2.363150
						CHANNELS 3 Zrotation Yrotation Xrotation
						End Site
						{
							OFFSET 0.000000 0.000000 0.000000
						}
					}
				}
			}
		}
	}
	JOINT LowerBack
	{
		OFFSET 0.000000 0.000000 0.000000
		CHANNELS 3 Zrotation Yrotation Xrotation
		JOINT Spine
		{
			OFFSET 0.028270 2.035590 -0.193380
			CHANNELS 3 Zrotation Yrotation Xrotation
			JOINT Spine1
			{
				OFFSET 0.056720 2.048850 -0.042750
				CHANNELS 3 Zrotation Yrotation Xrotation
				JOINT Neck
				{
					OFFSET 0.000000 0.000000 0.000000
					CHANNELS 3 Zrotation Yrotation Xrotation
					JOINT Neck1
					{
						OFFSET -0.054170 1.746240 0.172020
						CHANNELS 3 Zrotation Yrotation Xrotation
						JOINT Head
						{
							OFFSET 0.104070 1.761360 -0.123970
							CHANNELS 3 Zrotation Yrotation Xrotation
							End Site
							{
								OFFSET 0.000000 0.000000 0.000000
							}
						}
					}
				}
				JOINT LeftShoulder
				{
					OFFSET 0.000000 0.000000 0.000000
					CHANNELS 3 Zrotation Yrotation Xrotation
					JOINT LeftArm
					{
						OFFSET 3.362410 1.200890 -0.311210
						CHANNELS 3 Zrotation Yrotation Xrotation
						JOINT LeftForeArm
						{
							OFFSET 4.983000 -0.000000 -0.000000
							CHANNELS 3 Zrotation Yrotation Xrotation
							JOINT LeftHand
							{
								OFFSET 3.483560 -0.000000 -0.000000
								CHANNELS 3 Zrotation Yrotation Xrotation
								JOINT LeftFingerBase
								{
									OFFSET 0.000000 0.000000 0.000000
									CHANNELS 3 Zrotation Yrotation Xrotation
									JOINT LeftHandIndex1
									{
										OFFSET 0.715260 -0.000000 -0.000000
										CHANNELS 3 Zrotation Yrotation Xrotation
										End Site
										{
											OFFSET 0.000000 0.000000 0.000000
										}
									}
								}
								JOINT LThumb
								{
									OFFSET 0.000000 0.000000 0.000000
									CHANNELS 3 Zrotation Yrotation Xrotation
									End Site
									{
										OFFSET 0.000000 0.000000 0.000000
									}
								}
							}
						}
					}
				}
				JOINT RightShoulder
				{
					OFFSET 0.000000 0.000000 0.000000
					CHANNELS 3 Zrotation Yrotation Xrotation
					JOINT RightArm
					{
						OFFSET -3.136600 1.374050 -0.404650
						CHANNELS 3 Zrotation Yrotation Xrotation
						JOINT RightForeArm
						{
							OFFSET -5.241900 -0.000000 -0.000000
							CHANNELS 3 Zrotation Yrotation Xrotation
							JOINT RightHand
							{
								OFFSET -3.444170 -0.000000 -0.000000
								CHANNELS 3 Zrotation Yrotation Xrotation
								JOINT RightFingerBase
								{
									OFFSET 0.000000 0.000000 0.000000
									CHANNELS 3 Zrotation Yrotation Xrotation
									JOINT RightHandIndex1
									{
										OFFSET -0.622530 -0.000000 -0.000000
										CHANNELS 3 Zrotation Yrotation Xrotation
										End Site
										{
											OFFSET 0.000000 0.000000 0.000000
										}
									}
								}
								JOINT RThumb
								{
									OFFSET 0.000000 0.000000 0.000000
									CHANNELS 3 Zrotation Yrotation Xrotation
									End Site
									{
										OFFSET 0.000000 0.000000 0.000000
									}
								}
							}
						}
					}
				}
			}
		}
	}
}
MOTION
Frames: 5
Frame Time: 0.008333
-1.219797 17.803040 -29.715376 4.389588 52.524465 6.057208 -6.508551 -2.527686 -0.223193 -9.409219 -10.588281 -14.234678 -0.380564 8.224017 22.516033 3.660533 -14.677347 12.707832 1.046500 -6.505400 -18.258100 4.685550 1.676697 0.900256 11.967673 -16.957113 -8.190616 -1.610989 -9.674672 25.760255 9.428193 -36.383421 -26.235490 -0.031100 -1.139100 3.131600 3.118982 6.377324 2.626479 1.276184 8.338937 -0.816576 -1.135415 4.334886 -0.725186 18.413811 19.379852 1.676901 -13.200148 27.350892 5.733983 -7.162100 13.502600 9.553100 3.872846 -2.085411 0.579292 -88.913425 6.492195 54.372966 20.111088 -30.267065 -4.941025 -0.496752 0.195818 -25.770488 -12.312498 11.989817 -2.437900 -7.125000 0.000000 0.000000 -33.103400 39.243900 5.411800 -2.690854 1.033612 0.357446 83.916852 -2.624575 19.480633 -10.906263 18.830522 -1.821507 0.027923 -0.387350 -4.830725 -13.105986 1.519870 -0.446500 7.125000 0.000000 0.000000 10.376100 -27.955900 4.367200 
-1.217298 17.802941 -29.721172 4.340345 52.352007 6.008612 -6.504230 -2.527868 -0.216838 -9.392280 -10.511236 -14.241394 -0.379007 8.226346 22.518357 3.655986 -14.612731 12.694067 0.843100 -5.856900 -16.369900 4.684765 1.677326 0.897966 11.939891 -16.845778 -8.175231 -1.611728 -9.677963 25.763869 9.440461 -36.383295 -26.144236 -0.030000 -1.117300 3.071500 3.085081 6.228725 2.675642 1.382952 8.143574 -0.755332 -0.985156 4.238779 -0.695534 18.114328 19.559962 1.873217 -13.435337 27.597203 5.300660 -7.170600 13.599700 9.396400 3.871505 -2.094608 0.591719 -89.150278 6.591968 54.215133 20.440920 -30.669350 -5.098498 -0.515082 0.195118 -27.069362 -12.631565 12.892179 -2.691600 -7.125000 0.000000 0.000000 -33.722200 39.974000 4.831200 -2.710701 0.999815 0.333819 84.209453 -1.159043 17.325410 -9.965228 17.506698 -1.574616 0.004812 -0.375990 -2.602561 -13.670567 1.791551 -0.529300 7.125000 0.000000 0.000000 9.927700 -27.692600 4.235700 
-1.211102 17.803440 -29.722871 4.314505 52.022456 6.046829 -6.493234 -2.538304 -0.208815 -9.381514 -10.269557 -14.345688 -0.376887 8.228226 22.520254 3.657037 -14.584165 12.675111 0.651800 -5.164100 -14.377100 4.684048 1.680842 0.893220 11.886555 -16.699645 -8.219833 -1.615253 -9.685496 25.780139 9.438880 -36.311930 -25.937616 -0.029200 -1.103200 3.032800 2.928499 6.083675 2.515136 1.502654 7.935832 -0.674260 -0.726912 4.138506 -0.547418 17.945684 19.780936 2.231206 -13.814030 27.930356 4.771619 -7.240800 13.748500 9.239000 3.870127 -2.108431 0.607161 -89.502853 6.644289 53.725264 20.714743 -31.008820 -5.233479 -0.537788 0.197777 -28.198342 -12.979625 13.996120 -3.003700 -7.125000 0.000000 0.000000 -34.467600 40.864400 4.080000 -2.730222 0.959096 0.309009 84.529614 0.307968 15.011310 -9.009666 16.134785 -1.332165 -0.013873 -0.350507 1.040344 -13.224805 1.769253 -0.500100 7.125000 0.000000 0.000000 10.268400 -27.742800 4.373100 
-1.208204 17.803940 -29.729268 4.348964 51.929156 6.087444 -6.491722 -2.544126 -0.205737 -9.424243 -10.161908 -14.394837 -0.375600 8.230406 22.525427 3.660127 -14.618193 12.650374 0.599600 -4.956900 -13.785700 4.681743 1.678808 0.893076 11.821838 -16.688848 -8.256980 -1.621058 -9.690941 25.794299 9.448343 -36.292974 -25.811248 -0.028700 -1.093700 3.006500 2.827681 6.040055 2.542792 1.533990 7.875122 -0.690549 -0.621021 4.112841 -0.606415 17.801109 19.827710 2.539674 -13.822233 27.926344 4.395229 -7.264000 13.754700 9.005700 3.858491 -2.133622 0.611880 -89.638387 6.785370 53.586645 20.819902 -31.137130 -5.285607 -0.543203 0.198222 -28.634069 -13.043301 14.304074 -3.084900 -7.125000 0.000000 0.000000 -34.655500 41.114600 3.857400 -2.725158 0.948515 0.319476 84.355089 -0.325808 15.655007 -9.397848 16.689522 -1.430217 -0.010387 -0.361844 0.180414 -13.615796 1.850137 -0.537800 7.125000 0.000000 0.000000 9.963400 -27.648100 4.262000 
-1.204506 17.804740 -29.734065 4.341287 51.753452 6.105885 -6.486884 -2.550229 -0.200908 -9.433156 -10.027928 -14.450832 -0.374614 8.231193 22.526121 3.660675 -14.608712 12.638908 0.442800 -4.269700 -11.836600 4.680741 1.679505 0.891030 11.777112 -16.604274 -8.284291 -1.624434 -9.696970 25.808376 9.453067 -36.264800 -25.690439 -0.028300 -1.085300 2.983600 2.735676 5.958040 2.519305 1.592354 7.760767 -0.663243 -0.482578 4.059220 -0.580992 17.577495 19.951908 2.770411 -13.881044 28.031746 3.971818 -7.260600 13.800200 8.792800 3.851584 -2.152058 0.619658 -89.857501 6.848915 53.273243 20.952684 -31.301717 -5.352612 -0.554011 0.200758 -29.254471 -13.140577 14.893514 -3.235100 -7.125000 0.000000 0.000000 -35.000300 41.594900 3.419400 -2.729610 0.927507 0.316117 84.364501 -0.127944 15.122167 -9.286444 16.525712 -1.403546 -0.014763 -0.359066 0.926082 -13.672012 1.898246 -0.551200 7.125000 0.000000 0.000000 9.916400 -27.601900 4.252400 
